<?xml version="1.0" encoding="UTF-8"?>
<svg width="238px" height="175px" viewBox="0 0 238 175" version="1.1" xmlns="http://www.w3.org/2000/svg" xmlns:xlink="http://www.w3.org/1999/xlink">
    <title>SailTrack Logo</title>
    <g id="Page-1" stroke="none" stroke-width="1" fill="none" fill-rule="evenodd">
        <g id="Logo" transform="translate(9.993000, 9.800000)" fill="#000000">
            <g id="TRACK" transform="translate(0.000000, 111.768000)" fill-rule="nonzero">
                <polygon id="Path" points="193.736 26.657 188.002 32.635 188.002 43.432 178.181 43.432 178.181 0.732 188.002 0.732 188.002 20.679 206.912 0.732 217.892 0.732 200.202 19.764 218.929 43.432 207.4 43.432"></polygon>
                <path d="M153.903,44.164 C149.551667,44.164 145.617167,43.2185 142.0995,41.3275 C138.581833,39.4365 135.8165,36.8135 133.8035,33.4585 C131.7905,30.1035 130.784,26.3113333 130.784,22.082 C130.784,17.8526667 131.7905,14.0605 133.8035,10.7055 C135.8165,7.3505 138.581833,4.7275 142.0995,2.8365 C145.617167,0.9455 149.572,0 153.964,0 C157.664667,0 161.0095,0.650666667 163.9985,1.952 C166.9875,3.25333333 169.498667,5.124 171.532,7.564 L165.188,13.42 C162.300667,10.0853333 158.722,8.418 154.452,8.418 C151.808667,8.418 149.45,8.9975 147.376,10.1565 C145.302,11.3155 143.6855,12.932 142.5265,15.006 C141.3675,17.08 140.788,19.4386667 140.788,22.082 C140.788,24.7253333 141.3675,27.084 142.5265,29.158 C143.6855,31.232 145.302,32.8485 147.376,34.0075 C149.45,35.1665 151.808667,35.746 154.452,35.746 C158.722,35.746 162.300667,34.0583333 165.188,30.683 L171.532,36.539 C169.498667,39.0196667 166.977333,40.9106667 163.968,42.212 C160.958667,43.5133333 157.603667,44.164 153.903,44.164 Z" id="Path"></path>
                <path d="M115.473,34.282 L95.648,34.282 L91.866,43.432 L81.74,43.432 L100.772,0.732 L110.532,0.732 L129.625,43.432 L119.255,43.432 L115.473,34.282 Z M112.362,26.779 L105.591,10.431 L98.82,26.779 L112.362,26.779 Z" id="Shape"></path>
                <path d="M69.723,43.432 L61.488,31.537 L61,31.537 L52.399,31.537 L52.399,43.432 L42.517,43.432 L42.517,0.732 L61,0.732 C64.782,0.732 68.0658333,1.36233333 70.8515,2.623 C73.6371667,3.88366667 75.7823333,5.673 77.287,7.991 C78.7916667,10.309 79.544,13.054 79.544,16.226 C79.544,19.398 78.7815,22.1328333 77.2565,24.4305 C75.7315,26.7281667 73.566,28.487 70.76,29.707 L80.337,43.432 L69.723,43.432 Z M69.54,16.226 C69.54,13.8266667 68.7673333,11.9865 67.222,10.7055 C65.6766667,9.4245 63.4196667,8.784 60.451,8.784 L52.399,8.784 L52.399,23.668 L60.451,23.668 C63.4196667,23.668 65.6766667,23.0173333 67.222,21.716 C68.7673333,20.4146667 69.54,18.5846667 69.54,16.226 Z" id="Shape"></path>
                <polygon id="Path" points="13.664 8.784 0 8.784 0 0.732 37.21 0.732 37.21 8.784 23.546 8.784 23.546 43.432 13.664 43.432"></polygon>
            </g>
            <g id="SAIL" transform="translate(0.407000, 0.000000)">
                <path d="M156.65723,0.30626691 L172.65723,28.1092669 L172.65723,90.3062669 L208.44923,90.3062669 L217.65723,106.306267 L156.65723,106.306267 L156.65723,0.30626691 Z" id="Shape"></path>
                <polygon id="Path" fill-rule="nonzero" points="142.905 0.5 142.905 106.2 126.295 106.2 126.295 0.5"></polygon>
                <path d="M111.65723,0.30626691 L111.65723,106.306267 L95.6572303,106.306267 L95.6572303,55.3062669 L62.9402303,106.306267 L43.6572303,106.306267 L111.65723,0.30626691 Z" id="Shape"></path>
                <path d="M0.45,26.4 C0.45,17.9 2.5,11.375 6.6,6.825 C10.7,2.275 16.75,0 24.75,0 C32.75,0 38.8,2.275 42.9,6.825 C47,11.375 49.05,17.9 49.05,26.4 L49.05,29.7 L33.45,29.7 L33.45,25.35 C33.45,21.75 32.75,19.125 31.35,17.475 C29.95,15.825 27.9,15 25.2,15 C22.5,15 20.45,15.825 19.05,17.475 C17.65,19.125 16.95,21.75 16.95,25.35 C16.95,29.75 18.125,33.6 20.475,36.9 C22.825,40.2 26.35,43.95 31.05,48.15 C34.95,51.75 38.1,54.925 40.5,57.675 C42.9,60.425 44.95,63.75 46.65,67.65 C48.35,71.55 49.2,76 49.2,81 C49.2,89.5 47.1,96.025 42.9,100.575 C38.7,105.125 32.6,107.4 24.6,107.4 C16.6,107.4 10.5,105.125 6.3,100.575 C2.1,96.025 0,89.5 0,81 L0,74.55 L15.6,74.55 L15.6,82.05 C15.6,88.85 18.45,92.25 24.15,92.25 C29.85,92.25 32.7,88.85 32.7,82.05 C32.7,77.65 31.525,73.8 29.175,70.5 C26.825,67.2 23.3,63.45 18.6,59.25 C14.7,55.65 11.55,52.475 9.15,49.725 C6.75,46.975 4.7,43.65 3,39.75 C1.3,35.85 0.45,31.4 0.45,26.4 Z" id="Path" fill-rule="nonzero"></path>
            </g>
        </g>
    </g>
</svg>